<svg width="49" height="40" viewBox="0 0 49 40" fill="none" xmlns="http://www.w3.org/2000/svg">
<g clip-path="url(#clip0_1798_208)">
<path fill-rule="evenodd" clip-rule="evenodd" d="M46.4167 38.6667C46.4167 38.6667 49.5 38.6667 49.5 35.5556C49.5 32.4444 46.4167 23.1111 34.0833 23.1111C21.75 23.1111 18.6667 32.4444 18.6667 35.5556C18.6667 38.6667 21.75 38.6667 21.75 38.6667H46.4167ZM21.8178 35.5556H46.3488C46.3633 35.5539 46.3777 35.5518 46.392 35.5493L46.4167 35.5431C46.4105 34.7218 45.9017 32.3387 44.0733 30.192C42.3713 28.1791 39.3805 26.2222 34.0833 26.2222C28.7892 26.2222 25.7984 28.1822 24.0933 30.192C22.2649 32.3387 21.7531 34.7249 21.75 35.5431C21.7726 35.5475 21.7952 35.5517 21.8178 35.5556V35.5556ZM34.0833 16.8889C35.7188 16.8889 37.2873 16.2333 38.4438 15.0664C39.6003 13.8996 40.25 12.3169 40.25 10.6667C40.25 9.01643 39.6003 7.43379 38.4438 6.26689C37.2873 5.1 35.7188 4.44445 34.0833 4.44445C32.4478 4.44445 30.8793 5.1 29.7228 6.26689C28.5664 7.43379 27.9167 9.01643 27.9167 10.6667C27.9167 12.3169 28.5664 13.8996 29.7228 15.0664C30.8793 16.2333 32.4478 16.8889 34.0833 16.8889ZM43.3333 10.6667C43.3333 11.8923 43.0941 13.106 42.6292 14.2384C42.1644 15.3708 41.483 16.3997 40.6241 17.2663C39.7651 18.133 38.7454 18.8205 37.6232 19.2895C36.5009 19.7586 35.2981 20 34.0833 20C32.8686 20 31.6658 19.7586 30.5435 19.2895C29.4212 18.8205 28.4015 18.133 27.5426 17.2663C26.6837 16.3997 26.0023 15.3708 25.5374 14.2384C25.0726 13.106 24.8333 11.8923 24.8333 10.6667C24.8333 8.19131 25.8079 5.81735 27.5426 4.06701C29.2773 2.31667 31.6301 1.33334 34.0833 1.33334C36.5366 1.33334 38.8894 2.31667 40.6241 4.06701C42.3588 5.81735 43.3333 8.19131 43.3333 10.6667V10.6667ZM21.5527 23.9822C20.3193 23.5903 19.0479 23.3327 17.7602 23.2138C17.0366 23.1444 16.3102 23.1101 15.5833 23.1111C3.25 23.1111 0.166666 32.4444 0.166666 35.5556C0.166666 37.6307 1.19342 38.6667 3.25 38.6667H16.2493C15.7922 37.6954 15.5643 36.6306 15.5833 35.5556C15.5833 32.4133 16.7457 29.2027 18.9442 26.5209C19.6934 25.6062 20.566 24.7507 21.5527 23.9822ZM15.3367 26.2222C10.1937 26.2844 7.27375 28.2133 5.59333 30.192C3.75258 32.3511 3.25 34.7436 3.25 35.5556H12.5C12.5 32.3044 13.4959 29.0658 15.3367 26.2222ZM4.79167 12.2222C4.79167 9.74687 5.76622 7.3729 7.50093 5.62256C9.23564 3.87222 11.5884 2.88889 14.0417 2.88889C16.4949 2.88889 18.8477 3.87222 20.5824 5.62256C22.3171 7.3729 23.2917 9.74687 23.2917 12.2222C23.2917 14.6976 22.3171 17.0715 20.5824 18.8219C18.8477 20.5722 16.4949 21.5556 14.0417 21.5556C11.5884 21.5556 9.23564 20.5722 7.50093 18.8219C5.76622 17.0715 4.79167 14.6976 4.79167 12.2222V12.2222ZM14.0417 6C12.4062 6 10.8376 6.65556 9.68117 7.82245C8.5247 8.98934 7.875 10.572 7.875 12.2222C7.875 13.8725 8.5247 15.4551 9.68117 16.622C10.8376 17.7889 12.4062 18.4444 14.0417 18.4444C15.6772 18.4444 17.2457 17.7889 18.4022 16.622C19.5586 15.4551 20.2083 13.8725 20.2083 12.2222C20.2083 10.572 19.5586 8.98934 18.4022 7.82245C17.2457 6.65556 15.6772 6 14.0417 6Z" fill="white"/>
</g>
<defs>
<clipPath id="clip0_1798_208">
<rect width="48" height="39.5295" fill="white" transform="translate(0.5)"/>
</clipPath>
</defs>
</svg>
