<svg width="48" height="40" viewBox="0 0 48 40" fill="none" xmlns="http://www.w3.org/2000/svg">
<g clip-path="url(#clip0_1798_203)">
<path fill-rule="evenodd" clip-rule="evenodd" d="M45.9167 38.6667C45.9167 38.6667 49 38.6667 49 35.5556C49 32.4444 45.9167 23.1111 33.5833 23.1111C21.25 23.1111 18.1667 32.4444 18.1667 35.5556C18.1667 38.6667 21.25 38.6667 21.25 38.6667H45.9167ZM21.3178 35.5556H45.8488C45.8633 35.5539 45.8777 35.5518 45.892 35.5493L45.9167 35.5431C45.9105 34.7218 45.4017 32.3387 43.5733 30.192C41.8713 28.1791 38.8805 26.2222 33.5833 26.2222C28.2892 26.2222 25.2984 28.1822 23.5933 30.192C21.7649 32.3387 21.2531 34.7249 21.25 35.5431C21.2726 35.5475 21.2952 35.5517 21.3178 35.5556V35.5556ZM33.5833 16.8889C35.2188 16.8889 36.7873 16.2333 37.9438 15.0664C39.1003 13.8996 39.75 12.3169 39.75 10.6667C39.75 9.01643 39.1003 7.43379 37.9438 6.26689C36.7873 5.1 35.2188 4.44445 33.5833 4.44445C31.9478 4.44445 30.3793 5.1 29.2228 6.26689C28.0664 7.43379 27.4167 9.01643 27.4167 10.6667C27.4167 12.3169 28.0664 13.8996 29.2228 15.0664C30.3793 16.2333 31.9478 16.8889 33.5833 16.8889ZM42.8333 10.6667C42.8333 11.8923 42.5941 13.106 42.1292 14.2384C41.6644 15.3708 40.983 16.3997 40.1241 17.2663C39.2651 18.133 38.2454 18.8205 37.1231 19.2895C36.0009 19.7586 34.798 20 33.5833 20C32.3686 20 31.1658 19.7586 30.0435 19.2895C28.9212 18.8205 27.9015 18.133 27.0426 17.2663C26.1836 16.3997 25.5023 15.3708 25.0374 14.2384C24.5726 13.106 24.3333 11.8923 24.3333 10.6667C24.3333 8.19131 25.3079 5.81735 27.0426 4.06701C28.7773 2.31667 31.1301 1.33334 33.5833 1.33334C36.0366 1.33334 38.3893 2.31667 40.1241 4.06701C41.8588 5.81735 42.8333 8.19131 42.8333 10.6667V10.6667ZM21.0527 23.9822C19.8193 23.5903 18.5479 23.3327 17.2602 23.2138C16.5366 23.1444 15.8101 23.1101 15.0833 23.1111C2.74999 23.1111 -0.333344 32.4444 -0.333344 35.5556C-0.333344 37.6307 0.693406 38.6667 2.74999 38.6667H15.7493C15.2922 37.6954 15.0643 36.6306 15.0833 35.5556C15.0833 32.4133 16.2457 29.2027 18.4442 26.5209C19.1934 25.6062 20.066 24.7507 21.0527 23.9822ZM14.8367 26.2222C9.69366 26.2844 6.77374 28.2133 5.09332 30.192C3.25257 32.3511 2.74999 34.7436 2.74999 35.5556H12C12 32.3044 12.9959 29.0658 14.8367 26.2222ZM4.29166 12.2222C4.29166 9.74687 5.26621 7.3729 7.00092 5.62256C8.73563 3.87222 11.0884 2.88889 13.5417 2.88889C15.9949 2.88889 18.3477 3.87222 20.0824 5.62256C21.8171 7.3729 22.7917 9.74687 22.7917 12.2222C22.7917 14.6976 21.8171 17.0715 20.0824 18.8219C18.3477 20.5722 15.9949 21.5556 13.5417 21.5556C11.0884 21.5556 8.73563 20.5722 7.00092 18.8219C5.26621 17.0715 4.29166 14.6976 4.29166 12.2222V12.2222ZM13.5417 6C11.9062 6 10.3376 6.65556 9.18116 7.82245C8.02469 8.98934 7.37499 10.572 7.37499 12.2222C7.37499 13.8725 8.02469 15.4551 9.18116 16.622C10.3376 17.7889 11.9062 18.4444 13.5417 18.4444C15.1772 18.4444 16.7457 17.7889 17.9021 16.622C19.0586 15.4551 19.7083 13.8725 19.7083 12.2222C19.7083 10.572 19.0586 8.98934 17.9021 7.82245C16.7457 6.65556 15.1772 6 13.5417 6Z" fill="#23A6F0"/>
</g>
<defs>
<clipPath id="clip0_1798_203">
<rect width="48" height="39.5295" fill="white"/>
</clipPath>
</defs>
</svg>
